<svg xmlns="http://www.w3.org/2000/svg" xmlns:xlink="http://www.w3.org/1999/xlink" style="width: 0; height: 0; visibility: hidden; position: absolute;" aria-hidden="true"><symbol  viewBox='0 0 24 24' id='camera'>
    <path d="M5 4H2V3h3v1zm8 6a3 3 0 1 0 0 6 3 3 0 0 0 0-6zm11-5v17H0V5h6a2 2 0 0 0 1.6-.9L9 2h8l1.4 2.1c.4.6 1 .9 1.7.9H24zM5 9a1 1 0 1 0-2 0 1 1 0 0 0 2 0zm13 4a5 5 0 1 0-10 0 5 5 0 0 0 10 0z"></path>
  </symbol><symbol id='left' viewBox="0 0 444.531 444.531">
      <path d="M213.13,222.409L351.88,83.653c7.05-7.043,10.567-15.657,10.567-25.841c0-10.183-3.518-18.793-10.567-25.835
    l-21.409-21.416C323.432,3.521,314.817,0,304.637,0s-18.791,3.521-25.841,10.561L92.649,196.425
    c-7.044,7.043-10.566,15.656-10.566,25.841s3.521,18.791,10.566,25.837l186.146,185.864c7.05,7.043,15.66,10.564,25.841,10.564
    s18.795-3.521,25.834-10.564l21.409-21.412c7.05-7.039,10.567-15.604,10.567-25.697c0-10.085-3.518-18.746-10.567-25.978
    L213.13,222.409z"/>
  </symbol><symbol viewBox='0 0 32 32' id='menu'>
    <path d="M4 10h24a2 2 0 0 0 0-4H4a2 2 0 0 0 0 4zm24 4H4a2 2 0 0 0 0 4h24a2 2 0 0 0 0-4zm0 8H4a2 2 0 0 0 0 4h24a2 2 0 0 0 0-4z"></path>
  </symbol><symbol viewBox='0 0 24 24' id='pencil'>
    <path d="M14 4.2L1.5 17 0 24l7.1-1.4L19.8 9.9 14 4.2zm-10.3 15l-.8-1L14 7.3l.8.8-11 11.1zm2 2l-.8-1L16 9.3l.9.8-11.2 11zM24 5.6l-2.8 2.8-5.7-5.7L18.3 0 24 5.7z"></path>
  </symbol><symbol id='right' viewBox="0 0 444.819 444.819">
    <path d="M352.025,196.712L165.884,10.848C159.029,3.615,150.469,0,140.187,0c-10.282,0-18.842,3.619-25.697,10.848L92.792,32.264
    c-7.044,7.043-10.566,15.604-10.566,25.692c0,9.897,3.521,18.56,10.566,25.981l138.753,138.473L92.786,361.168
    c-7.042,7.043-10.564,15.604-10.564,25.693c0,9.896,3.521,18.562,10.564,25.98l21.7,21.413
    c7.043,7.043,15.612,10.564,25.697,10.564c10.089,0,18.656-3.521,25.697-10.564l186.145-185.864
    c7.046-7.423,10.571-16.084,10.571-25.981C362.597,212.321,359.071,203.755,352.025,196.712z"/>
  </symbol><symbol viewBox='0 0 24 24' id='search'>
    <path d="M23.8 20.9l-6.3-6.4a9.5 9.5 0 1 0-3.2 3l6.4 6.5 3.1-3.1zM3.5 9.5a6 6 0 1 1 12 0 6 6 0 0 1-12 0z"></path>
  </symbol><symbol viewBox='0 0 24 24' id='settings'>
    <path d="M24 13.6v-3.2c-1.7-.6-2.7-.8-3.2-2-.5-1.3 0-2.2.8-3.7l-2.3-2.3c-1.5.7-2.4 1.3-3.7.8-1.2-.5-1.4-1.6-2-3.2h-3.2c-.6 1.6-.8 2.7-2 3.2-1.3.5-2.2 0-3.7-.8L2.4 4.7C3 6.2 3.7 7 3.2 8.4c-.5 1.2-1.6 1.4-3.2 2v3.2c1.6.6 2.7.8 3.2 2 .5 1.3 0 2.2-.8 3.7l2.3 2.3c1.5-.7 2.4-1.3 3.7-.8 1.2.5 1.4 1.6 2 3.2h3.2c.6-1.6.8-2.7 2-3.2 1.3-.5 2.2 0 3.7.8l2.3-2.3c-.7-1.5-1.3-2.4-.8-3.7.5-1.2 1.6-1.4 3.2-2zM12 16a4 4 0 1 1 0-8 4 4 0 0 1 0 8z"></path>
  </symbol></svg>